<svg width="180" height="26" viewBox="0 0 180 26" fill="none" xmlns="http://www.w3.org/2000/svg">
<path d="M13 5.164H5.92V11.428H11.5L10 15.856H5.92V25H0.339996V0.735998H15.136L13 5.164Z" fill="#005391"/>
<path d="M13.8509 12.796C13.8509 9.076 14.9189 6.076 17.0549 3.796C19.2149 1.492 22.0829 0.339996 25.6589 0.339996C29.2589 0.339996 32.1269 1.48 34.2629 3.76C36.3989 6.04 37.4669 9.052 37.4669 12.796C37.4669 16.516 36.3869 19.528 34.2269 21.832C32.0909 24.112 29.2349 25.252 25.6589 25.252C22.0589 25.252 19.1909 24.112 17.0549 21.832C14.9189 19.552 13.8509 16.54 13.8509 12.796ZM21.3749 7.396C20.3189 8.716 19.7909 10.516 19.7909 12.796C19.7909 15.076 20.3189 16.888 21.3749 18.232C22.4309 19.552 23.8589 20.212 25.6589 20.212C27.4589 20.212 28.8869 19.552 29.9429 18.232C30.9989 16.888 31.5269 15.076 31.5269 12.796C31.5269 10.516 30.9989 8.716 29.9429 7.396C28.8869 6.052 27.4589 5.38 25.6589 5.38C23.8589 5.38 22.4309 6.052 21.3749 7.396Z" fill="#005391"/>
<path d="M38.5587 12.796C38.5587 9.076 39.6267 6.076 41.7627 3.796C43.9227 1.492 46.7907 0.339996 50.3667 0.339996C53.9667 0.339996 56.8347 1.48 58.9707 3.76C61.1067 6.04 62.1747 9.052 62.1747 12.796C62.1747 16.516 61.0948 19.528 58.9347 21.832C56.7987 24.112 53.9427 25.252 50.3667 25.252C46.7667 25.252 43.8987 24.112 41.7627 21.832C39.6267 19.552 38.5587 16.54 38.5587 12.796ZM46.0827 7.396C45.0267 8.716 44.4987 10.516 44.4987 12.796C44.4987 15.076 45.0267 16.888 46.0827 18.232C47.1387 19.552 48.5667 20.212 50.3667 20.212C52.1667 20.212 53.5947 19.552 54.6507 18.232C55.7067 16.888 56.2347 15.076 56.2347 12.796C56.2347 10.516 55.7067 8.716 54.6507 7.396C53.5947 6.052 52.1667 5.38 50.3667 5.38C48.5667 5.38 47.1387 6.052 46.0827 7.396Z" fill="#005391"/>
<path d="M63.2666 12.796C63.2666 9.076 64.3346 6.076 66.4706 3.796C68.6306 1.492 71.4986 0.339996 75.0746 0.339996C78.6746 0.339996 81.5426 1.48 83.6786 3.76C85.8146 6.04 86.8826 9.052 86.8826 12.796C86.8826 16.516 85.8026 19.528 83.6426 21.832C81.5066 24.112 78.6506 25.252 75.0746 25.252C71.4746 25.252 68.6066 24.112 66.4706 21.832C64.3346 19.552 63.2666 16.54 63.2666 12.796ZM70.7906 7.396C69.7346 8.716 69.2066 10.516 69.2066 12.796C69.2066 15.076 69.7346 16.888 70.7906 18.232C71.8466 19.552 73.2746 20.212 75.0746 20.212C76.8746 20.212 78.3026 19.552 79.3586 18.232C80.4146 16.888 80.9426 15.076 80.9426 12.796C80.9426 10.516 80.4146 8.716 79.3586 7.396C78.3026 6.052 76.8746 5.38 75.0746 5.38C73.2746 5.38 71.8466 6.052 70.7906 7.396Z" fill="#005391"/>
<path d="M105.038 0.735998L103.5 5.2H99.1344V25H93.5544V5.2H87.6144V0.735998H105.038Z" fill="#005391"/>
<path d="M112.2 20.572H115.116C117.852 20.572 119.22 19.636 119.22 17.764C119.22 15.892 117.864 14.956 115.152 14.956H112.2V20.572ZM112.2 5.164V10.6H114.252C115.692 10.6 116.772 10.336 117.492 9.808C118.236 9.28 118.608 8.584 118.608 7.72C118.608 6.016 117.456 5.164 115.152 5.164H112.2ZM106.656 0.735998H116.088C118.752 0.735998 120.78 1.372 122.172 2.644C123.564 3.892 124.26 5.488 124.26 7.432C124.26 8.704 123.924 9.82 123.252 10.78C122.58 11.74 121.704 12.388 120.624 12.724C123.432 13.564 124.836 15.46 124.836 18.412C124.836 20.332 124.14 21.916 122.748 23.164C121.38 24.388 119.508 25 117.132 25H106.656V0.735998Z" fill="#005391"/>
<path d="M133.745 15.568H139.577L139.325 14.704C138.629 12.352 138.053 10.348 137.597 8.692C137.165 7.036 136.901 5.968 136.805 5.488L136.661 4.768C136.469 6.088 135.581 9.4 133.997 14.704L133.745 15.568ZM142.385 25L140.909 20.032H132.413L130.937 25H125.141L133.241 0.735998H140.225L148.325 25H142.385Z" fill="#005391"/>
<path d="M155.253 20.14H164.217L162.5 25H149.709V0.735998H155.253V20.14Z" fill="#005391"/>
<path d="M171.031 20.14H179.995L178.5 25H165.487V0.735998H171.031V20.14Z" fill="#005391"/>
</svg>
